<svg width="74" height="74" viewBox="0 0 74 74" fill="none" xmlns="http://www.w3.org/2000/svg">
<circle cx="37" cy="37" r="36.5" stroke="black"/>
<path d="M39.7443 27.5666V38.3772H38.795V12.7834H46.7931C49.4064 12.7834 51.4337 13.4455 52.8751 14.7697C54.3282 16.0822 55.0548 17.9104 55.0548 20.2541C55.0548 22.5744 54.3458 24.3674 52.9279 25.633C51.5216 26.8987 49.5177 27.5432 46.9161 27.5666H39.7443ZM39.7443 26.6174H46.7931C49.1017 26.6174 50.8947 26.0608 52.172 24.9475C53.4611 23.8342 54.1056 22.2815 54.1056 20.2893C54.1056 18.2268 53.4611 16.6213 52.172 15.4729C50.8947 14.3127 49.1017 13.7326 46.7931 13.7326H39.7443V26.6174Z" fill="black"/>
<path d="M36.1321 26.9109L36.1321 16.1003H37.0814L37.0814 41.6941L29.0833 41.6941C26.47 41.6941 24.4427 41.032 23.0013 39.7078C21.5482 38.3953 20.8216 36.5671 20.8216 34.2234C20.8216 31.9031 21.5306 30.1101 22.9485 28.8445C24.3548 27.5789 26.3587 26.9343 28.9603 26.9109L36.1321 26.9109ZM36.1321 27.8601L29.0833 27.8601C26.7747 27.8601 24.9817 28.4167 23.7044 29.53C22.4153 30.6433 21.7708 32.196 21.7708 34.1882C21.7708 36.2507 22.4153 37.8562 23.7044 39.0046C24.9817 40.1648 26.7747 40.7449 29.0833 40.7449L36.1321 40.7449L36.1321 27.8601Z" fill="black"/>
<path d="M13.1231 54.7352V57.7381H12.8594V50.6287H15.0811C15.807 50.6287 16.3701 50.8126 16.7705 51.1805C17.1742 51.5451 17.376 52.0529 17.376 52.7039C17.376 53.3484 17.179 53.8465 16.7852 54.1981C16.3945 54.5496 15.8379 54.7287 15.1152 54.7352H13.1231ZM13.1231 54.4715H15.0811C15.7223 54.4715 16.2204 54.3169 16.5752 54.0076C16.9333 53.6984 17.1123 53.2671 17.1123 52.7137C17.1123 52.1408 16.9333 51.6948 16.5752 51.3758C16.2204 51.0535 15.7223 50.8924 15.0811 50.8924H13.1231V54.4715ZM19.3242 57.7381H19.0606V50.6287H19.3242V57.7381ZM26.5947 57.7381H26.3311L21.7412 51.0779V57.7381H21.4727V50.6287H21.7412L26.3311 57.2742V50.6287H26.5947V57.7381ZM32.3809 54.2127H28.8164V57.4744H32.8789V57.7381H28.5527V50.6287H32.8789V50.8924H28.8164V53.949H32.3809V54.2127ZM37.9912 55.6141H34.5098L33.7188 57.7381H33.4307L36.0918 50.6287H36.4141L39.0752 57.7381H38.7871L37.9912 55.6141ZM34.6074 55.3504H37.8936L36.2529 50.9461L34.6074 55.3504ZM40.4863 54.7352V57.7381H40.2227V50.6287H42.4443C43.1703 50.6287 43.7334 50.8126 44.1338 51.1805C44.5374 51.5451 44.7393 52.0529 44.7393 52.7039C44.7393 53.3484 44.5423 53.8465 44.1484 54.1981C43.7578 54.5496 43.2012 54.7287 42.4785 54.7352H40.4863ZM40.4863 54.4715H42.4443C43.0856 54.4715 43.5837 54.3169 43.9385 54.0076C44.2966 53.6984 44.4756 53.2671 44.4756 52.7137C44.4756 52.1408 44.2966 51.6948 43.9385 51.3758C43.5837 51.0535 43.0856 50.8924 42.4443 50.8924H40.4863V54.4715ZM46.4922 54.7352V57.7381H46.2285V50.6287H48.4502C49.1761 50.6287 49.7393 50.8126 50.1397 51.1805C50.5433 51.5451 50.7451 52.0529 50.7451 52.7039C50.7451 53.3484 50.5482 53.8465 50.1543 54.1981C49.7637 54.5496 49.207 54.7287 48.4844 54.7352H46.4922ZM46.4922 54.4715H48.4502C49.0915 54.4715 49.5895 54.3169 49.9443 54.0076C50.3024 53.6984 50.4815 53.2671 50.4815 52.7137C50.4815 52.1408 50.3024 51.6948 49.9443 51.3758C49.5895 51.0535 49.0915 50.8924 48.4502 50.8924H46.4922V54.4715ZM52.5029 57.4744H56.1504V57.7381H52.2344V50.6287H52.5029V57.4744ZM61.2285 54.2127H57.6641V57.4744H61.7266V57.7381H57.4004V50.6287H61.7266V50.8924H57.6641V53.949H61.2285V54.2127Z" fill="black"/>
</svg>
